<svg width="238" height="37" viewBox="0 0 238 37" fill="none" xmlns="http://www.w3.org/2000/svg">
<g id="Frame" clip-path="url(#clip0_1_594)">
<path id="Vector" d="M59.0473 35.1642C56.9212 34.2414 54.9874 32.9285 53.3464 31.2934C51.7054 29.6548 50.3857 27.7242 49.4555 25.6011C48.5122 23.3772 48.0275 20.9863 48.0303 18.5711C48.0275 16.1606 48.5122 13.7743 49.4555 11.5554C50.384 9.43134 51.7038 7.50041 53.3464 5.86306C54.98 4.22266 56.9158 2.91308 59.0473 2.00649C61.2678 1.05893 63.6588 0.574659 66.0736 0.583415C68.4886 0.57305 70.8801 1.05739 73.1001 2.00649C75.2291 2.91776 77.1641 4.22677 78.8011 5.86306C80.4366 7.49725 81.7429 9.42962 82.6491 11.5554C83.5981 13.7725 84.0831 16.16 84.0744 18.5711C84.0835 20.9869 83.5985 23.3791 82.6491 25.6011C81.7395 27.725 80.4336 29.6568 78.8011 31.2934C77.1572 32.9251 75.2241 34.2376 73.1001 35.1642C70.8782 36.1072 68.488 36.5913 66.0736 36.5873C63.6594 36.5901 61.2696 36.1061 59.0473 35.1642Z" fill="white"/>
<path id="Vector_2" d="M119.435 19.9089C121.983 19.8876 124.42 18.8651 126.219 17.0627C127.153 16.1618 127.889 15.0765 128.38 13.8759C128.87 12.6754 129.105 11.3859 129.069 10.0896C129.077 7.47254 128.053 4.95745 126.219 3.08809C125.344 2.15585 124.293 1.40654 123.126 0.883724C121.959 0.360906 120.699 0.0750353 119.421 0.0427246H106.465C106.223 0.0427246 106.964 0.697303 106.964 0.939227V36.26C106.964 36.5019 106.223 37.0427 106.465 37.0427H127.986C128.114 37.0427 128.214 36.7723 128.285 36.6585C128.32 36.5902 128.339 36.5146 128.339 36.4379C128.339 36.3612 128.32 36.2856 128.285 36.2173L119.435 19.9089Z" fill="white"/>
<path id="Vector_3" d="M161.037 35.1642C158.912 34.2387 156.979 32.9261 155.336 31.2934C153.695 29.6548 152.375 27.7241 151.445 25.6011C150.502 23.3772 150.017 20.9862 150.02 18.5711C150.017 16.1605 150.502 13.7743 151.445 11.5553C152.374 9.43131 153.694 7.50037 155.336 5.86302C156.972 4.22565 158.907 2.91649 161.037 2.00645C163.258 1.0589 165.649 0.574622 168.064 0.583378C170.483 0.574284 172.879 1.05853 175.104 2.00645C177.234 2.91649 179.169 4.22565 180.805 5.86302C182.445 7.49333 183.752 9.42667 184.653 11.5553C185.609 13.7703 186.095 16.1592 186.079 18.5711C186.095 20.9875 185.609 23.3811 184.653 25.6011C183.749 27.7279 182.442 29.6606 180.805 31.2934C179.162 32.9261 177.229 34.2387 175.104 35.1642C172.877 36.106 170.482 36.59 168.064 36.5872C165.649 36.5901 163.259 36.106 161.037 35.1642Z" fill="white"/>
<path id="Vector_4" d="M14.7085 36.7439H0V0.782715H14.6657C21.6066 0.782715 26.1816 4.625 26.1816 10.2319C26.1717 11.8767 25.6863 13.4836 24.7836 14.8594C23.881 16.2353 22.5997 17.3216 21.0935 17.9877C22.9126 18.612 24.4955 19.7797 25.6274 21.3326C26.7594 22.8854 27.3856 24.7482 27.4215 26.6685C27.4215 32.6739 22.3763 36.7439 14.7085 36.7439Z" fill="white"/>
<path id="Vector_5" d="M9.22119 30.1978H13.2405C16.0909 30.1978 17.73 28.6181 17.73 26.5262C17.73 24.4343 16.0054 22.8547 13.4543 22.8547H9.47781V9.77661H13.5254" stroke="black" stroke-width="0.25" stroke-miterlimit="10"/>
<path id="Vector_6" d="M237.06 10.3885C236.402 8.4036 235.295 6.59689 233.824 5.10891C232.359 3.60049 230.571 2.44261 228.594 1.72198C227.071 1.15223 225.459 0.858242 223.833 0.853882C222.189 0.858429 220.558 1.1523 219.016 1.72198C217.026 2.44176 215.224 3.59932 213.743 5.10891C212.272 6.59689 211.165 8.4036 210.507 10.3885C209.082 14.5154 209.652 19.0124 209.652 23.2958V35.577C209.652 35.8047 209.652 36.4166 209.852 36.5589C210.051 36.7012 210.179 37.0001 210.35 37.0001H237.259C237.43 37.0001 237.601 36.6727 237.744 36.5589C237.886 36.445 237.929 35.9754 237.929 35.7335C237.929 31.6493 237.929 27.4654 237.929 23.3812C237.929 19.297 238.413 14.5154 237.06 10.3885Z" fill="white"/>
</g>
<defs>
<clipPath id="clip0_1_594">
<rect width="238" height="37" fill="white"/>
</clipPath>
</defs>
</svg>
