<svg width="38" height="31" viewBox="0 0 38 31" fill="none" xmlns="http://www.w3.org/2000/svg">
<g id="Welcome">
<g id="FUNDACION-CEIBAL">
<path id="Icon-Copy-4" fill-rule="evenodd" clip-rule="evenodd" d="M11.9368 30.2413C26.2761 30.2413 34.1224 18.8951 34.1224 9.07232C34.1224 8.75312 34.1224 8.43389 34.1072 8.11468C35.6278 7.07002 36.9508 5.74975 38 4.2553C36.601 4.85018 35.0956 5.24186 33.5142 5.43049C35.126 4.5164 36.3577 3.05101 36.9508 1.30991C35.4454 2.16595 33.7727 2.77536 31.9936 3.10907C30.5642 1.65815 28.5418 0.758545 26.3065 0.758545C22.0032 0.758545 18.5058 4.09574 18.5058 8.20185C18.5058 8.78222 18.5818 9.34794 18.7035 9.89929C12.2257 9.59459 6.47779 6.62034 2.63065 2.12247C1.96158 3.22518 1.58143 4.50185 1.58143 5.86572C1.58143 8.44836 2.9652 10.7264 5.04843 12.0612C3.77112 12.0177 2.56982 11.684 1.5206 11.1327C1.5206 11.1617 1.5206 11.1907 1.5206 11.2343C1.5206 14.8326 4.21207 17.8504 7.7703 18.5323C7.11643 18.7064 6.43217 18.7935 5.71748 18.7935C5.21568 18.7935 4.72909 18.7501 4.2577 18.663C5.2461 21.6229 8.13525 23.7702 11.5414 23.8283C8.86514 25.8305 5.50461 27.0203 1.85515 27.0203C1.2317 27.0203 0.608243 26.9913 0 26.9187C3.43657 29.0081 7.54222 30.2413 11.9368 30.2413Z" fill="white"/>
</g>
</g>
</svg>
